<svg width="20" height="20" viewBox="0 0 20 20" fill="none" xmlns="http://www.w3.org/2000/svg">
<g clip-path="url(#clip0_1_52)">
<circle opacity="0.2" cx="10" cy="10" r="10" fill="#AC630D"/>
<path d="M9.99935 11.9918C10.8847 11.9918 11.5993 11.2711 11.5993 10.3783C11.5993 9.77591 11.274 9.24884 10.7993 8.97455L5.62068 5.95196L8.57001 11.1043C8.83668 11.6314 9.37535 11.9918 9.99935 11.9918ZM9.99935 5C9.03401 5 8.13268 5.26891 7.34868 5.70993L8.46868 6.3607C8.93268 6.17784 9.46601 6.07566 9.99935 6.07566C12.3567 6.07566 14.266 8.00108 14.266 10.3783C14.266 11.5669 13.7913 12.6425 13.018 13.417H13.0127C12.9632 13.4668 12.924 13.5259 12.8972 13.5909C12.8705 13.656 12.8567 13.7257 12.8567 13.7962C12.8567 13.8666 12.8705 13.9364 12.8972 14.0014C12.924 14.0665 12.9632 14.1256 13.0127 14.1753C13.2207 14.3851 13.562 14.3851 13.77 14.1807C14.266 13.682 14.6594 13.0893 14.9276 12.4367C15.1958 11.7842 15.3334 11.0846 15.3327 10.3783C15.3327 7.42022 12.9327 5 9.99935 5ZM4.66602 10.3783C4.66602 11.8627 5.26335 13.2073 6.22868 14.1807C6.43668 14.3851 6.77268 14.3851 6.98068 14.1753C7.03012 14.1256 7.06935 14.0665 7.09611 14.0014C7.12288 13.9364 7.13665 13.8666 7.13665 13.7962C7.13665 13.7257 7.12288 13.656 7.09611 13.5909C7.06935 13.5259 7.03012 13.4668 6.98068 13.417C6.58404 13.0187 6.26955 12.545 6.05535 12.0235C5.84115 11.5019 5.73148 10.9428 5.73268 10.3783C5.73268 9.84045 5.83402 9.30262 6.02068 8.81858L5.37535 7.68914C4.93268 8.49588 4.66602 9.39943 4.66602 10.3783Z" fill="#AC630D"/>
</g>
<defs>
<clipPath id="clip0_1_52">
<rect width="20" height="20" fill="white"/>
</clipPath>
</defs>
</svg>
