<svg width="20" height="20" viewBox="0 0 20 20" fill="none" xmlns="http://www.w3.org/2000/svg">
<g clip-path="url(#clip0_1_15)">
<circle opacity="0.2" cx="10" cy="10" r="10" fill="#6EDDC9"/>
<g clip-path="url(#clip1_1_15)">
<path d="M6.90602 7.43482C5.67498 7.43482 4.66602 8.44068 4.66602 9.66842C4.66602 10.1442 4.81791 10.5863 5.07508 10.9497L6.63274 13.6424C6.85087 13.9274 6.99594 13.8733 7.17738 13.6275L8.89535 10.7037C8.93002 10.6408 8.95722 10.574 8.981 10.5058C9.09002 10.2401 9.14608 9.95561 9.14602 9.66842C9.14602 8.44068 8.13738 7.43482 6.90602 7.43482ZM6.90602 8.48143C7.56906 8.48143 8.09642 9.0074 8.09642 9.66852C8.09642 10.3296 7.56906 10.8554 6.90602 10.8554C6.24308 10.8554 5.71562 10.3295 5.71562 9.66852C5.71562 9.0074 6.24308 8.48143 6.90602 8.48143ZM14.026 4.02148C13.3079 4.02148 12.7193 4.60826 12.7193 5.32452C12.7193 5.60196 12.8079 5.85988 12.958 6.07183L13.8667 7.6426C13.9939 7.80879 14.0785 7.77722 14.1843 7.63386L15.1864 5.92826C15.2067 5.89167 15.2226 5.85274 15.2364 5.81284C15.3 5.6579 15.3327 5.49202 15.3327 5.32452C15.3327 4.60815 14.7443 4.02148 14.026 4.02148ZM14.026 4.63204C14.4128 4.63204 14.7204 4.93882 14.7204 5.32452C14.7204 5.71012 14.4128 6.01679 14.026 6.01679C13.6393 6.01679 13.3316 5.71012 13.3316 5.32452C13.3316 4.93882 13.6393 4.63204 14.026 4.63204Z" fill="#6EDDC9"/>
<path fill-rule="evenodd" clip-rule="evenodd" d="M14.0732 8.01172C13.8335 8.01705 13.5932 8.02719 13.3525 8.045L13.3896 8.63508C13.6208 8.61833 13.8525 8.60755 14.0843 8.60276L14.0732 8.01172ZM12.7959 8.09919C12.4257 8.14516 12.0524 8.21065 11.6833 8.31593L11.8223 8.88777C12.1577 8.7922 12.5052 8.73044 12.8582 8.6866L12.7959 8.09919ZM11.1307 8.51391C11.0201 8.56272 10.913 8.61914 10.8103 8.68276L10.8098 8.68329L10.8092 8.68351C10.6625 8.77588 10.508 8.89311 10.3818 9.06345C10.2904 9.18687 10.2156 9.34292 10.1981 9.52745L10.7416 9.58772C10.7456 9.54441 10.7678 9.48724 10.8077 9.43348H10.8079V9.43327C10.8722 9.34623 10.9687 9.26719 11.0833 9.19487L11.0838 9.19465C11.1655 9.14421 11.2506 9.09944 11.3385 9.06068L11.1307 8.51391ZM10.8509 9.85097L10.4986 10.3027C10.5821 10.3791 10.6697 10.4377 10.7543 10.4868L10.7553 10.4873L10.7564 10.488C11.0371 10.6477 11.3266 10.7378 11.595 10.8233L11.7493 10.2561C11.481 10.1705 11.2281 10.088 11.0113 9.96489C10.9493 9.92884 10.8949 9.89119 10.8509 9.85097ZM12.2733 10.4157L12.1227 10.9839L12.1939 11.0061L12.2814 11.034C12.5709 11.1282 12.8482 11.2288 13.0961 11.368L13.3477 10.8432C13.0479 10.6748 12.7368 10.5647 12.4369 10.4672L12.4361 10.467L12.3463 10.4383L12.2733 10.4157ZM13.8591 11.237L13.4727 11.6551C13.564 11.754 13.6323 11.8729 13.6656 11.9958L13.6658 11.9965L13.6661 11.9974C13.7057 12.1409 13.7058 12.3096 13.6748 12.4801L14.2107 12.5944C14.2544 12.3538 14.2615 12.0896 14.1896 11.8288C14.127 11.5982 14.0075 11.3979 13.8591 11.237ZM13.4877 12.8364C13.4287 12.8987 13.3634 12.9549 13.2929 13.004H13.2927C13.1007 13.1391 12.878 13.2408 12.6414 13.3283L12.8178 13.8877C13.0766 13.792 13.3423 13.6747 13.5906 13.4999L13.5913 13.4994L13.5916 13.4992C13.6936 13.4278 13.7879 13.346 13.8731 13.2552L13.4877 12.8364ZM12.1394 13.4859C11.7967 13.578 11.4464 13.6482 11.0919 13.7077L11.1755 14.2921C11.5404 14.2308 11.9068 14.1575 12.271 14.0596L12.1394 13.4859ZM10.5584 13.7884C10.2015 13.8371 9.8427 13.8769 9.4828 13.9108L9.52995 14.4998C9.89539 14.4655 10.2615 14.4251 10.627 14.375L10.5584 13.7884ZM8.9419 13.9572C8.58126 13.9858 8.21976 14.0091 7.85795 14.0287L7.88526 14.6192C8.25059 14.5995 8.61624 14.5759 8.98179 14.5469L8.9419 13.9572ZM7.31427 14.0553C7.09742 14.0655 6.88003 14.0738 6.66211 14.0815L6.68003 14.6725C6.89931 14.665 7.11855 14.6562 7.33774 14.6463L7.31427 14.0553Z" fill="#6EDDC9"/>
</g>
</g>
<defs>
<clipPath id="clip0_1_15">
<rect width="20" height="20" fill="white"/>
</clipPath>
<clipPath id="clip1_1_15">
<rect width="10.6667" height="10.6667" fill="white" transform="translate(4.66602 4.02148)"/>
</clipPath>
</defs>
</svg>
