<svg width="20" height="20" viewBox="0 0 20 20" fill="none" xmlns="http://www.w3.org/2000/svg">
<g clip-path="url(#clip0_1_96)">
<circle opacity="0.2" cx="10" cy="10" r="10" fill="#B3DD6E"/>
<path fill-rule="evenodd" clip-rule="evenodd" d="M6.42289 5.11651L5.15845 5.32441C5.1155 5.33147 5.08398 5.3686 5.08398 5.41212V6.82031C5.08398 6.8803 5.1422 6.92306 5.19944 6.90513L6.11178 6.61931C6.64247 6.53737 6.80842 6.60126 7.23599 6.9413L8.15761 7.75667L9.19675 6.70692L7.84746 5.61708C7.7593 5.55723 7.67813 5.49397 7.59953 5.43273L7.59953 5.43272C7.36241 5.24794 7.14877 5.08145 6.83754 5.08203C6.69941 5.08235 6.56054 5.09432 6.42289 5.11651ZM11.3501 7.37258C10.7692 6.7318 10.1151 6.33263 9.5342 6.97341L7.60608 8.97766C7.21881 9.40481 7.41105 9.97302 7.79833 10.4002L9.40927 12.2036L10.5864 11.1204C10.6425 11.0586 10.7102 11.013 10.7852 10.9821L10.7852 12.3436C10.7849 12.4416 10.8321 12.5324 10.909 12.5815C10.986 12.6306 11.0809 12.6306 11.1578 12.5815C11.2347 12.5324 11.282 12.4416 11.2816 12.3436L11.2812 10.9757C11.2812 10.9694 11.2811 10.9631 11.2808 10.9568C11.4694 11.0015 11.6495 11.1007 11.7728 11.2367L13.8764 13.5571L15.1704 12.2964C15.5084 11.9236 15.1785 11.5749 14.8316 11.2082L14.8316 11.2081C14.7811 11.1547 14.7301 11.1009 14.6809 11.0465L11.3501 7.37258ZM14.4199 13.7149L15.1181 12.9961L15.4651 13.6713C15.6519 14.0347 15.7499 14.4397 15.7499 14.8509V15.7513H14.8756V15.2202C14.8756 14.803 14.7746 14.3925 14.5825 14.0251L14.4199 13.7149ZM10.0244 12.332L9.67383 12.7187L9.92368 12.9943C10.6407 13.7852 11.8117 13.7852 12.5287 12.9943L12.6537 12.8566L12.3031 12.4699L12.1782 12.6076C11.6506 13.1895 10.8028 13.1895 10.2752 12.6076L10.0244 12.332ZM5.93256 13.6047C6.40122 13.6047 6.78114 13.2121 6.78114 12.7278C6.78114 12.2435 5.93256 11.2246 5.93256 11.2246C5.93256 11.2246 5.08398 12.2435 5.08398 12.7278C5.08398 13.2121 5.4639 13.6047 5.93256 13.6047Z" fill="#B3DD6E"/>
</g>
<defs>
<clipPath id="clip0_1_96">
<rect width="20" height="20" fill="white"/>
</clipPath>
</defs>
</svg>
