<svg width="15" height="15" viewBox="0 0 15 15" fill="none" xmlns="http://www.w3.org/2000/svg">
<path d="M10.5317 10.7196L11.4317 9.81962L8.38173 6.76962L6.32548 8.82587C6.26766 8.88381 6.19898 8.92978 6.12337 8.96114C6.04776 8.99251 5.96671 9.00865 5.88486 9.00865C5.803 9.00865 5.72195 8.99251 5.64634 8.96114C5.57073 8.92978 5.50205 8.88381 5.44423 8.82587L1.69423 5.06962C1.57737 4.95276 1.51172 4.79426 1.51172 4.629C1.51172 4.46373 1.57737 4.30523 1.69423 4.18837C1.81109 4.07151 1.96959 4.00586 2.13486 4.00586C2.30012 4.00586 2.45862 4.07151 2.57548 4.18837L5.88173 7.50087L7.93798 5.44462C7.9958 5.38668 8.06448 5.34072 8.14009 5.30935C8.2157 5.27799 8.29675 5.26184 8.37861 5.26184C8.46046 5.26184 8.54151 5.27799 8.61712 5.30935C8.69273 5.34072 8.76141 5.38668 8.81923 5.44462L12.313 8.93212L13.213 8.03212C13.2567 7.9893 13.3119 7.96023 13.372 7.94853C13.432 7.93683 13.4942 7.94301 13.5507 7.9663C13.6073 7.98959 13.6558 8.02897 13.6902 8.07955C13.7246 8.13014 13.7434 8.18971 13.7442 8.25087V10.9321C13.7442 11.1071 13.6067 11.2446 13.4317 11.2446H10.7505C10.4755 11.2509 10.338 10.9134 10.5317 10.7196Z" fill="#D24343"/>
</svg>
