<svg width="20" height="20" viewBox="0 0 20 20" fill="none" xmlns="http://www.w3.org/2000/svg">
<g clip-path="url(#clip0_1_33)">
<circle opacity="0.2" cx="10" cy="10" r="10" fill="#00A8E2"/>
<path d="M9.9974 5.73073C12.3499 5.73073 14.2641 7.64486 14.2641 9.9974C14.2641 12.3499 12.3499 14.2641 9.9974 14.2641C7.64486 14.2641 5.73073 12.3499 5.73073 9.9974C5.73073 7.64486 7.64486 5.73073 9.9974 5.73073ZM9.9974 4.66406C7.0518 4.66406 4.66406 7.0518 4.66406 9.9974C4.66406 12.943 7.0518 15.3307 9.9974 15.3307C12.943 15.3307 15.3307 12.943 15.3307 9.9974C15.3307 7.0518 12.943 4.66406 9.9974 4.66406ZM12.0241 11.8107L10.5307 9.8198V7.33073H9.46406V10.175L11.1707 12.4502L12.0241 11.8107Z" fill="#00A8E2"/>
</g>
<defs>
<clipPath id="clip0_1_33">
<rect width="20" height="20" fill="white"/>
</clipPath>
</defs>
</svg>
