<svg width="20" height="20" viewBox="0 0 20 20" fill="none" xmlns="http://www.w3.org/2000/svg">
<g clip-path="url(#clip0_1_68)">
<circle opacity="0.2" cx="10" cy="10" r="10" fill="#E2B519"/>
<path d="M10.3333 11.9918C9.90899 11.9918 9.50202 11.8218 9.20196 11.5192C8.90191 11.2166 8.73334 10.8062 8.73334 10.3783C8.73334 9.77591 9.05867 9.24884 9.53334 8.97455L14.712 5.95195L11.7627 11.1043C11.496 11.6314 10.9573 11.9918 10.3333 11.9918ZM10.3333 5C11.2987 5 12.2 5.26891 12.984 5.70993L11.864 6.3607C11.4 6.17784 10.8667 6.07566 10.3333 6.07566C9.20175 6.07566 8.1165 6.52897 7.31635 7.33586C6.51619 8.14276 6.06667 9.23715 6.06667 10.3783C6.06667 11.5669 6.54134 12.6425 7.31467 13.417H7.32C7.528 13.6268 7.528 13.9656 7.32 14.1753C7.112 14.3851 6.77067 14.3851 6.56267 14.1807C6.06666 13.682 5.67326 13.0893 5.40509 12.4367C5.13692 11.7842 4.99925 11.0846 5 10.3783C5 8.95187 5.56191 7.58388 6.5621 6.57526C7.56229 5.56664 8.91885 5 10.3333 5ZM15.6667 10.3783C15.6667 11.8627 15.0693 13.2073 14.104 14.1807C13.896 14.3851 13.56 14.3851 13.352 14.1753C13.3026 14.1256 13.2633 14.0665 13.2366 14.0014C13.2098 13.9364 13.196 13.8666 13.196 13.7962C13.196 13.7257 13.2098 13.656 13.2366 13.5909C13.2633 13.5259 13.3026 13.4668 13.352 13.417C13.7486 13.0187 14.0631 12.545 14.2773 12.0235C14.4915 11.5019 14.6012 10.9428 14.6 10.3783C14.6 9.84045 14.4987 9.30262 14.312 8.81858L14.9573 7.68914C15.4 8.49588 15.6667 9.39943 15.6667 10.3783Z" fill="#E2B519"/>
</g>
<defs>
<clipPath id="clip0_1_68">
<rect width="20" height="20" fill="white"/>
</clipPath>
</defs>
</svg>
